<svg width="11" height="6" viewBox="0 0 11 6" fill="none" xmlns="http://www.w3.org/2000/svg">
<path d="M9.31309 0.670288C8.40415 1.8208 7.04182 2.57132 5.50003 2.57132C3.95824 2.57132 2.5959 1.8208 1.68691 0.670288C0.895622 1.39852 0.318407 2.3532 0 3.4244C1.36085 4.99343 3.31113 5.99989 5.50003 5.99989C7.68892 5.99989 9.6392 4.99343 11 3.4244C10.6816 2.3532 10.1044 1.39852 9.31309 0.670288Z" fill="white"/>
<path d="M9.31309 0.670288C8.40415 1.8208 7.04182 2.57132 5.50003 2.57132C3.95824 2.57132 2.5959 1.8208 1.68691 0.670288C0.895622 1.39852 0.318407 2.3532 0 3.4244C1.36085 4.99343 3.31113 5.99989 5.50003 5.99989C7.68892 5.99989 9.6392 4.99343 11 3.4244C10.6816 2.3532 10.1044 1.39852 9.31309 0.670288Z" fill="url(#paint0_linear_1_92)"/>
<defs>
<linearGradient id="paint0_linear_1_92" x1="-77" y1="29.0949" x2="-30.1254" y2="-29.5412" gradientUnits="userSpaceOnUse">
<stop stop-color="#2A1C75"/>
<stop offset="1" stop-color="#5639B7"/>
</linearGradient>
</defs>
</svg>
