<svg width="19" height="23" viewBox="0 0 19 23" fill="none" xmlns="http://www.w3.org/2000/svg">
<path d="M16.9055 22.775H1.89481C1.30372 22.775 0.758888 22.4555 0.469514 21.9394C0.180222 21.4233 0.191745 20.7911 0.499506 20.2858L5.80769 11.5732L0.499506 2.8607C0.191663 2.35544 0.180222 1.72316 0.469514 1.2071C0.758806 0.690952 1.30372 0.37146 1.89481 0.37146H16.9055C17.8082 0.37146 18.5399 1.10423 18.5399 2.0082C18.5399 2.91218 17.8082 3.64495 16.9055 3.64495H4.80652L9.11755 10.7207C9.43642 11.2442 9.43642 11.9023 9.11755 12.4257L4.80652 19.5015H16.9055C17.8082 19.5015 18.5399 20.2343 18.5399 21.1383C18.5399 22.0423 17.8082 22.775 16.9055 22.775Z" fill="white"/>
<path d="M16.9055 22.775H1.89481C1.30372 22.775 0.758888 22.4555 0.469514 21.9394C0.180222 21.4233 0.191745 20.7911 0.499506 20.2858L5.80769 11.5732L0.499506 2.8607C0.191663 2.35544 0.180222 1.72316 0.469514 1.2071C0.758806 0.690952 1.30372 0.37146 1.89481 0.37146H16.9055C17.8082 0.37146 18.5399 1.10423 18.5399 2.0082C18.5399 2.91218 17.8082 3.64495 16.9055 3.64495H4.80652L9.11755 10.7207C9.43642 11.2442 9.43642 11.9023 9.11755 12.4257L4.80652 19.5015H16.9055C17.8082 19.5015 18.5399 20.2343 18.5399 21.1383C18.5399 22.0423 17.8082 22.775 16.9055 22.775Z" fill="url(#paint0_linear_1_78)"/>
<defs>
<linearGradient id="paint0_linear_1_78" x1="26.4854" y1="-9.16111" x2="-7.01512" y2="3.45305" gradientUnits="userSpaceOnUse">
<stop stop-color="#32228A"/>
<stop offset="1" stop-color="#745ACD"/>
</linearGradient>
</defs>
</svg>
